<?xml version="1.0" encoding="UTF-8" standalone="no"?>
<!-- Created with Inkscape (http://www.inkscape.org/) -->

<svg
   xmlns:dc="http://purl.org/dc/elements/1.1/"
   xmlns:cc="http://creativecommons.org/ns#"
   xmlns:rdf="http://www.w3.org/1999/02/22-rdf-syntax-ns#"
   xmlns:svg="http://www.w3.org/2000/svg"
   xmlns="http://www.w3.org/2000/svg"
   xmlns:sodipodi="http://sodipodi.sourceforge.net/DTD/sodipodi-0.dtd"
   xmlns:inkscape="http://www.inkscape.org/namespaces/inkscape"
   id="svg3074"
   version="1.1"
   inkscape:version="0.48.4 r9939"
   width="600"
   height="250"
   sodipodi:docname="logotipo.svg">
  <metadata
     id="metadata3080">
    <rdf:RDF>
      <cc:Work
         rdf:about="">
        <dc:format>image/svg+xml</dc:format>
        <dc:type
           rdf:resource="http://purl.org/dc/dcmitype/StillImage" />
        <dc:title></dc:title>
      </cc:Work>
    </rdf:RDF>
  </metadata>
  <defs
     id="defs3078" />
  <sodipodi:namedview
     pagecolor="#ffffff"
     bordercolor="#666666"
     borderopacity="1"
     objecttolerance="10"
     gridtolerance="10"
     guidetolerance="10"
     inkscape:pageopacity="0"
     inkscape:pageshadow="2"
     inkscape:window-width="640"
     inkscape:window-height="480"
     id="namedview3076"
     showgrid="false"
     inkscape:zoom="0.85"
     inkscape:cx="300"
     inkscape:cy="190.54382"
     inkscape:window-x="0"
     inkscape:window-y="24"
     inkscape:window-maximized="0"
     inkscape:current-layer="svg3074" />
  <g
     id="g3252"
     transform="matrix(0.92966836,0,0,0.92966836,108.72678,263.58213)">
    <path
       style="fill:#b7cd47"
       d="m 143.9656,-55.36441 c -0.056,-0.55 0.35662,-5.00086 0.91682,-9.8908 2.20869,-19.27934 -2.12261,-54.30818 -9.21065,-74.48984 -3.23794,-9.21935 -9.36791,-23.11936 -10.19575,-23.11936 -1.2175,0 -12.01667,17.5532 -16.05726,26.09983 -9.744262,20.61098 -13.379392,37.99546 -11.726472,56.08022 0.57051,6.24206 1.29542,12.24261 1.61091,13.33457 0.31548,1.09196 -0.14768,0.42879 -1.02925,-1.47372 -3.23187,-6.97461 -4.63375,-17.82699 -4.01879,-31.11064 1.06503,-23.00531 6.406042,-37.54961 23.670802,-64.45884 l 3.86789,-6.02857 -2.67908,-6.47143 c -2.17881,-5.263 -2.6826,-8.05864 -2.69793,-14.97142 -0.0163,-7.35023 0.35933,-9.24397 2.77698,-14 2.85554,-5.61748 5.69069,-9.37113 4.15416,-5.5 -0.43662,1.1 -0.99657,4.7 -1.24434,8 -0.40947,5.45369 -0.1002,6.67627 3.39667,13.42737 2.11593,4.08505 4.29715,7.52521 4.84715,7.64481 1.11897,0.24331 26.91589,-26.84004 31.5013,-33.07218 1.87615,-2.54994 2.96467,-5.2688 3.00268,-7.5 0.0561,-3.29596 0.14522,-3.38684 1.52782,-1.55887 0.80751,1.06762 1.4682,3.22305 1.4682,4.78984 0,5.78552 -4.18542,11.62897 -24.64392,34.4065 l -8.20717,9.13747 4.45488,8.86253 c 5.29382,10.53152 8.71515,20.91792 10.49567,31.86253 1.91122,11.74802 1.67095,43.60341 -0.42238,56 -1.68964,10.00592 -5.3673,25.88377 -5.55894,24 z m 72.38186,-87.17493 c -9.22356,-2.01651 -9.89492,-3.47278 -10.5,-22.77603 l -0.5,-15.95096 -3.5,-0.049 -3.5,-0.049 0,-5.5 0,-5.5 3.69088,-0.30684 c 3.31166,-0.27531 3.72264,-0.62424 4,-3.39597 0.27102,-2.70839 0.86375,-3.25415 4.80912,-4.42798 7.43053,-2.21074 8,-1.99128 8,3.08307 l 0,4.45229 6.25,0.29771 6.25,0.29772 0,5.5 0,5.5 -6.25,0.29772 -6.25,0.29772 0,11.22977 c 0,14.33428 0.9786,16.2006 8.00597,15.26839 4.56478,-0.60554 4.75905,-0.52775 5.34148,2.139 0.33242,1.52207 0.87489,3.71172 1.20548,4.86588 0.5166,1.80352 -0.007,2.25312 -3.72592,3.19866 -5.80434,1.4758 -10.89557,2.05951 -13.32701,1.52793 z m -147.470252,-1.86215 c -4.99031,-2.23123 -7.00683,-4.3106 -9.66172,-9.96292 -3.2692,-6.9602 -3.37095,-20.38818 -0.20551,-27.12235 3.92958,-8.35983 13.64079,-13.12665 24.69942,-12.12389 10.36994,0.94032 16.363572,5.69856 18.176162,14.42976 0.60088,2.89445 0.78704,7.29976 0.41367,9.78956 l -0.67886,4.52692 -15.886452,0 -15.88646,0 0,2.48422 c 0,1.36633 1.28311,3.92027 2.85135,5.67544 2.47009,2.76451 3.64437,3.24858 8.78217,3.62021 4.03065,0.29155 7.1611,-0.085 9.77078,-1.17543 5.21023,-2.17698 5.27324,-2.15684 7.61536,2.4341 l 2.060312,4.03855 -4.789982,2.19053 c -6.27108,2.86786 -21.97896,3.55662 -27.26024,1.1953 z m 20.97025,-31.46292 c 0,-4.47662 -3.08781,-7 -8.56574,-7 -2.51116,0 -5.4315,0.46334 -6.48965,1.02964 -1.9028,1.01835 -4.94461,5.89098 -4.94461,7.9207 0,0.6629 3.6846,1.04966 10,1.04966 l 10,0 0,-3 z m 75.907282,30.67301 c -3.43025,-1.81112 -5.06507,-3.61015 -7.37451,-8.11521 -2.63473,-5.13962 -2.96093,-6.75579 -2.91112,-14.42301 0.1104,-16.99349 8.35154,-26.13479 23.56126,-26.13479 5.94699,0 13.83367,1.85786 14.39137,3.39016 0.76801,2.11013 -2.30784,10.12887 -3.72286,9.70549 -0.74328,-0.22239 -4.0739,-0.60658 -7.40138,-0.85376 -5.42965,-0.40333 -6.37245,-0.17805 -9.19514,2.19708 -2.32339,1.955 -3.31955,3.80935 -3.81258,7.09708 -1.96957,13.13408 6.34183,21.07658 18.02918,17.22895 l 4.44345,-1.46284 1.55171,4.55402 c 1.24436,3.65199 1.3023,4.78449 0.29253,5.71757 -2.36884,2.18893 -8.05704,3.42625 -15.75113,3.42625 -6.12453,0 -8.59229,-0.47455 -12.10078,-2.32699 z m 229.76831,0.87535 c -2.10342,-0.75011 -3.996,-1.53543 -4.20571,-1.74515 -0.3598,-0.35979 2.32375,-8.93018 3.01158,-9.618 0.1767,-0.1767 2.69733,0.38434 5.60141,1.24676 9.50642,2.8231 15.91713,1.657 15.91713,-2.8953 0,-1.98644 -0.94075,-2.74495 -5.53751,-4.46482 -3.04563,-1.13952 -6.08313,-2.07353 -6.75,-2.07559 -2.36491,-0.007 -7.75911,-4.02446 -9.71789,-7.23712 -4.23301,-6.94268 -1.45663,-17.31837 5.5334,-20.67906 4.31142,-2.07285 11.78172,-2.52374 19.36381,-1.16875 9.21054,1.64601 9.36229,1.78519 7.78934,7.14339 -1.12801,3.84256 -1.63552,4.40533 -3.74305,4.15065 -11.78409,-1.42402 -15.56313,-1.3621 -16.92369,0.27727 -2.22871,2.68543 -0.12936,4.64332 8.06149,7.51829 4.08325,1.43321 8.38418,3.21983 9.55761,3.97026 8.38867,5.36467 6.79678,20.5293 -2.65344,25.27726 -4.30718,2.164 -19.57009,2.3449 -25.30448,0.29991 z m -421.675592,-24.04836 0,-24.5 4.893011,0 c 5.057459,0 6.106989,0.87334 6.106989,5.08179 0,2.50609 1.235174,2.42947 3.595012,-0.22302 2.690967,-3.02468 9.233068,-5.81096 13.704648,-5.83681 4.674673,-0.027 8.842457,2.03396 11.526854,5.70004 l 2.034116,2.778 3.319685,-3.18867 c 3.956186,-3.80004 7.638211,-5.33142 12.634785,-5.25489 6.451126,0.0988 10.426994,2.08623 12.89051,6.44356 2.135442,3.77706 2.262406,5.10079 2.27794,23.75 l 0.01645,19.75 -6.435542,0 -6.435542,0 -0.314458,-17.58256 c -0.28699,-16.04674 -0.484014,-17.70637 -2.255588,-19 -3.319086,-2.42364 -8.358613,-1.77154 -11.635793,1.50564 l -2.923077,2.92307 0,16.07693 0,16.07692 -6.5,0 -6.5,0 0,-15.4349 c 0,-14.89971 -0.803748,-20.18419 -3.312561,-21.77943 -2.535394,-1.61215 -7.568245,-0.75684 -10.610714,1.80322 l -3.076725,2.5889 0,16.4111 0,16.41111 -6.5,0 -6.5,0 0,-24.5 z M 241.31516,-145.088 c -0.27853,-0.72583 -0.38521,-11.65995 -0.23706,-24.29805 l 0.26936,-22.97836 4.91078,0 c 4.6629,0 4.96678,0.16631 6.02009,3.29469 l 1.10932,3.29469 2.89485,-3.02157 c 3.51088,-3.66457 8.50283,-5.46 12.6489,-4.54937 3.07094,0.67449 3.07564,0.686 2.38221,5.82869 -0.38215,2.83408 -0.89492,5.49037 -1.1395,5.90287 -0.24458,0.4125 -2.60744,0.75 -5.25081,0.75 -3.33351,0 -5.60594,0.62914 -7.41647,2.0533 -2.59877,2.0442 -2.61155,2.12505 -2.88485,18.25 l -0.27452,16.1967 -6.26294,0.29805 c -4.48542,0.21346 -6.40668,-0.0765 -6.76936,-1.02164 z m 38.76452,-23.02641 0.26778,-24.25 6.25,-0.29772 6.25,-0.29771 0,24.54771 0,24.54772 -6.51778,0 -6.51778,0 0.26778,-24.25 z m 28,0 0.26778,-24.25 4.39101,0 c 4.40386,0 5.20866,0.60164 6.56639,4.90878 0.56379,1.78855 0.77306,1.74465 3.32215,-0.69695 7.78434,-7.45609 19.30458,-7.50551 25.12365,-0.10776 l 2.07979,2.64402 3.94884,-3.56754 c 6.64379,-6.00226 17.86205,-6.25372 23.21774,-0.52043 3.77516,4.04132 4.31044,7.48136 4.33194,27.83988 l 0.0185,17.5 -6.5,0 -6.5,0 -0.5,-17.33307 c -0.45221,-15.67629 -0.68554,-17.46851 -2.44113,-18.75 -3.00316,-2.19216 -8.0657,-1.74489 -11.25311,0.99419 l -2.80577,2.41113 -0.3173,16.58887 -0.3173,16.58888 -6.4327,0 -6.4327,0 0,-16.06574 c 0,-19.61727 -0.81036,-21.88665 -7.82692,-21.91895 -2.35686,-0.0109 -4.17924,0.83701 -6.25,2.90777 l -2.92308,2.92307 0,16.07693 0,16.07692 -6.51778,0 -6.51778,0 0.26778,-24.25 z m -28.23222,-29.75 c -2.87752,-2.87752 -2.58884,-7.39166 0.63486,-9.92742 8.05887,-6.33911 20.37929,2.86824 13.05069,9.75311 -3.13354,2.9438 -10.81818,3.04168 -13.68555,0.17431 z"
       id="path3256"
       inkscape:connector-curvature="0" />
    <path
       style="fill:#968e8b"
       d="m 216.34746,-142.53934 c -9.22356,-2.01651 -9.89492,-3.47278 -10.5,-22.77603 l -0.5,-15.95096 -3.5,-0.049 -3.5,-0.049 0,-5.5 0,-5.5 3.69088,-0.30684 c 3.31166,-0.27531 3.72264,-0.62424 4,-3.39597 0.27102,-2.70839 0.86375,-3.25415 4.80912,-4.42798 7.43053,-2.21074 8,-1.99128 8,3.08307 l 0,4.45229 6.25,0.29771 6.25,0.29772 0,5.5 0,5.5 -6.25,0.29772 -6.25,0.29772 0,11.22977 c 0,14.33428 0.9786,16.2006 8.00597,15.26839 4.56478,-0.60554 4.75905,-0.52775 5.34148,2.139 0.33242,1.52207 0.87489,3.71172 1.20548,4.86588 0.5166,1.80352 -0.007,2.25312 -3.72592,3.19866 -5.80434,1.4758 -10.89557,2.05951 -13.32701,1.52793 z m -147.470252,-1.86215 c -4.99031,-2.23123 -7.00683,-4.3106 -9.66172,-9.96292 -3.2692,-6.9602 -3.37095,-20.38818 -0.20551,-27.12235 3.92958,-8.35983 13.64079,-13.12665 24.69942,-12.12389 10.36994,0.94032 16.363572,5.69856 18.176162,14.42976 0.60088,2.89445 0.78704,7.29976 0.41367,9.78956 l -0.67886,4.52692 -15.886452,0 -15.88646,0 0,2.48422 c 0,1.36633 1.28311,3.92027 2.85135,5.67544 2.47009,2.76451 3.64437,3.24858 8.78217,3.62021 4.03065,0.29155 7.1611,-0.085 9.77078,-1.17543 5.21023,-2.17698 5.27324,-2.15684 7.61536,2.4341 l 2.060312,4.03855 -4.789982,2.19053 c -6.27108,2.86786 -21.97896,3.55662 -27.26024,1.1953 z m 20.97025,-31.46292 c 0,-4.47662 -3.08781,-7 -8.56574,-7 -2.51116,0 -5.4315,0.46334 -6.48965,1.02964 -1.9028,1.01835 -4.94461,5.89098 -4.94461,7.9207 0,0.6629 3.6846,1.04966 10,1.04966 l 10,0 0,-3 z m 75.907282,30.67301 c -3.43025,-1.81112 -5.06507,-3.61015 -7.37451,-8.11521 -2.63473,-5.13962 -2.96093,-6.75579 -2.91112,-14.42301 0.1104,-16.99349 8.35154,-26.13479 23.56126,-26.13479 5.94699,0 13.83367,1.85786 14.39137,3.39016 0.76801,2.11013 -2.30784,10.12887 -3.72286,9.70549 -0.74328,-0.22239 -4.0739,-0.60658 -7.40138,-0.85376 -5.42965,-0.40333 -6.37245,-0.17805 -9.19514,2.19708 -2.32339,1.955 -3.31955,3.80935 -3.81258,7.09708 -1.96957,13.13408 6.34183,21.07658 18.02918,17.22895 l 4.44345,-1.46284 1.55171,4.55402 c 1.24436,3.65199 1.3023,4.78449 0.29253,5.71757 -2.36884,2.18893 -8.05704,3.42625 -15.75113,3.42625 -6.12453,0 -8.59229,-0.47455 -12.10078,-2.32699 z m -191.907282,-23.17301 0,-24.5 4.893011,0 c 5.057459,0 6.106989,0.87334 6.106989,5.08179 0,2.50609 1.235174,2.42947 3.595012,-0.22302 2.690967,-3.02468 9.233068,-5.81096 13.704648,-5.83681 4.674673,-0.027 8.842457,2.03396 11.526854,5.70004 l 2.034116,2.778 3.319685,-3.18867 c 3.956186,-3.80004 7.638211,-5.33142 12.634785,-5.25489 6.451126,0.0988 10.426994,2.08623 12.89051,6.44356 2.135442,3.77706 2.262406,5.10079 2.27794,23.75 l 0.01645,19.75 -6.435542,0 -6.435542,0 -0.314458,-17.58256 c -0.28699,-16.04674 -0.484014,-17.70637 -2.255588,-19 -3.319086,-2.42364 -8.358613,-1.77154 -11.635793,1.50564 l -2.923077,2.92307 0,16.07693 0,16.07692 -6.5,0 -6.5,0 0,-15.4349 c 0,-14.89971 -0.803748,-20.18419 -3.312561,-21.77943 -2.535394,-1.61215 -7.568245,-0.75684 -10.610714,1.80322 l -3.076725,2.5889 0,16.4111 0,16.41111 -6.5,0 -6.5,0 0,-24.5 z M 241.31516,-145.088 c -0.27853,-0.72583 -0.38521,-11.65995 -0.23706,-24.29805 l 0.26936,-22.97836 4.91078,0 c 4.6629,0 4.96678,0.16631 6.02009,3.29469 l 1.10932,3.29469 2.89485,-3.02157 c 3.51088,-3.66457 8.50283,-5.46 12.6489,-4.54937 3.07094,0.67449 3.07564,0.686 2.38221,5.82869 -0.38215,2.83408 -0.89492,5.49037 -1.1395,5.90287 -0.24458,0.4125 -2.60744,0.75 -5.25081,0.75 -3.33351,0 -5.60594,0.62914 -7.41647,2.0533 -2.59877,2.0442 -2.61155,2.12505 -2.88485,18.25 l -0.27452,16.1967 -6.26294,0.29805 c -4.48542,0.21346 -6.40668,-0.0765 -6.76936,-1.02164 z m 38.76452,-23.02641 0.26778,-24.25 6.25,-0.29772 6.25,-0.29771 0,24.54771 0,24.54772 -6.51778,0 -6.51778,0 0.26778,-24.25 z"
       id="path3254"
       inkscape:connector-curvature="0" />
  </g>
</svg>
